<svg xmlns="http://www.w3.org/2000/svg" style="position: absolute; width: 0; height: 0; overflow: hidden;">
<symbol id="icon-logo" viewBox="0 0 24 24">
<path d="M20 3H4a1 1 0 0 0-1 1v16a1 1 0 0 0 1 1h16a1 1 0 0 0 1-1V4a1 1 0 0 0-1-1zm-1 16H5V5h14v14z"></path><circle cx="12" cy="12" r="5"></circle>
</symbol>
<symbol id="icon-search" viewBox="0 0 24 24">
 <path d="M10 18a7.952 7.952 0 0 0 4.897-1.688l4.396 4.396 1.414-1.414-4.396-4.396A7.952 7.952 0 0 0 18 10c0-4.411-3.589-8-8-8s-8 3.589-8 8 3.589 8 8 8zm0-14c3.309 0 6 2.691 6 6s-2.691 6-6 6-6-2.691-6-6 2.691-6 6-6z"></path>
</symbol>
<symbol id="icon-add" viewBox="0 0 24 24">
<path d="m7 17.013 4.413-.015 9.632-9.54c.378-.378.586-.88.586-1.414s-.208-1.036-.586-1.414l-1.586-1.586c-.756-.756-2.075-.752-2.825-.003L7 12.583v4.43zM18.045 4.458l1.589 1.583-1.597 1.582-1.586-1.585 1.594-1.58zM9 13.417l6.03-5.973 1.586 1.586-6.029 5.971L9 15.006v-1.589z"></path><path d="M5 21h14c1.103 0 2-.897 2-2v-8.668l-2 2V19H8.158c-.026 0-.053.01-.079.01-.033 0-.066-.009-.1-.01H5V5h6.847l2-2H5c-1.103 0-2 .897-2 2v14c0 1.103.897 2 2 2z"></path>
</symbol>
<symbol id="icon-heart" viewBox="0 0 24 24">
<path d="M12 4.595a5.904 5.904 0 0 0-3.996-1.558 5.942 5.942 0 0 0-4.213 1.758c-2.353 2.363-2.352 6.059.002 8.412l7.332 7.332c.17.299.498.492.875.492a.99.99 0 0 0 .792-.409l7.415-7.415c2.354-2.354 2.354-6.049-.002-8.416a5.938 5.938 0 0 0-4.209-1.754A5.906 5.906 0 0 0 12 4.595zm6.791 1.61c1.563 1.571 1.564 4.025.002 5.588L12 18.586l-6.793-6.793c-1.562-1.563-1.561-4.017-.002-5.584.76-.756 1.754-1.172 2.799-1.172s2.035.416 2.789 1.17l.5.5a.999.999 0 0 0 1.414 0l.5-.5c1.512-1.509 4.074-1.505 5.584-.002z"></path>
</symbol>
<symbol id="icon-heart-fill" viewBox="0 0 24 24">
<path d="M20.205 4.791a5.938 5.938 0 0 0-4.209-1.754A5.906 5.906 0 0 0 12 4.595a5.904 5.904 0 0 0-3.996-1.558 5.942 5.942 0 0 0-4.213 1.758c-2.353 2.363-2.352 6.059.002 8.412L12 21.414l8.207-8.207c2.354-2.353 2.355-6.049-.002-8.416z"></path>
</symbol>
<symbol id="icon-arrow-left" viewBox="0 0 24 24">
<path d="M12.707 17.293 8.414 13H18v-2H8.414l4.293-4.293-1.414-1.414L4.586 12l6.707 6.707z"></path>
</symbol>
<symbol id="icon-arrow-right" viewBox="0 0 24 24">
<path d="m11.293 17.293 1.414 1.414L19.414 12l-6.707-6.707-1.414 1.414L15.586 11H6v2h9.586z"></path>
</symbol>
<symbol id="icon-error" viewBox="0 0 24 24">
<path d="M11.953 2C6.465 2 2 6.486 2 12s4.486 10 10 10 10-4.486 10-10S17.493 2 11.953 2zM12 20c-4.411 0-8-3.589-8-8s3.567-8 7.953-8C16.391 4 20 7.589 20 12s-3.589 8-8 8z"></path><path d="M11 7h2v7h-2zm0 8h2v2h-2z"></path>
</symbol>
<symbol id="icon-smile" viewBox="0 0 24 24">
<path d="M12 2C6.486 2 2 6.486 2 12s4.486 10 10 10 10-4.486 10-10S17.514 2 12 2zm0 18c-4.411 0-8-3.589-8-8s3.589-8 8-8 8 3.589 8 8-3.589 8-8 8z"></path><path d="M14.828 14.828a3.988 3.988 0 0 1-2.02 1.09 4.108 4.108 0 0 1-1.616 0 4.103 4.103 0 0 1-.749-.232 4.161 4.161 0 0 1-.679-.368 4.115 4.115 0 0 1-1.082-1.082l-1.658 1.117c.215.319.462.619.733.889a5.991 5.991 0 0 0 8.485.002c.272-.271.52-.571.734-.891l-1.658-1.117c-.143.211-.307.41-.49.592z"></path><circle cx="8.5" cy="10.5" r="1.5"></circle><path d="M15.5 10c-2 0-2.5 2-2.5 2h5s-.501-2-2.5-2z"></path>
</symbol>
<symbol id="icon-time" viewBox="0 0 24 24">
<path d="M12 2C6.486 2 2 6.486 2 12s4.486 10 10 10 10-4.486 10-10S17.514 2 12 2zm0 18c-4.411 0-8-3.589-8-8s3.589-8 8-8 8 3.589 8 8-3.589 8-8 8z"></path><path d="M13 7h-2v6h6v-2h-4z"></path>
</symbol>
<symbol id="icon-like" viewBox="0 0 24 24">
<path d="M20 8h-5.612l1.123-3.367c.202-.608.1-1.282-.275-1.802S14.253 2 13.612 2H12c-.297 0-.578.132-.769.36L6.531 8H4c-1.103 0-2 .897-2 2v9c0 1.103.897 2 2 2h13.307a2.01 2.01 0 0 0 1.873-1.298l2.757-7.351A1 1 0 0 0 22 12v-2c0-1.103-.897-2-2-2zM4 10h2v9H4v-9zm16 1.819L17.307 19H8V9.362L12.468 4h1.146l-1.562 4.683A.998.998 0 0 0 13 10h7v1.819z"></path>
</symbol>
<symbol id="icon-chart" viewBox="0 0 24 24">
<path d="M12 2C6.486 2 2 6.486 2 12s4.486 10 10 10 10-4.486 10-10S17.514 2 12 2zm7.931 9H13V4.069A8.008 8.008 0 0 1 19.931 11zM4 12c0-4.072 3.061-7.436 7-7.931V12a.996.996 0 0 0 .111.438c.015.03.022.063.041.093l4.202 6.723A7.949 7.949 0 0 1 12 20c-4.411 0-8-3.589-8-8zm13.052 6.196L13.805 13h6.126a7.992 7.992 0 0 1-2.879 5.196z"></path>
</symbol>
<symbol id="icon-group" viewBox="0 0 24 24">
<path d="M16.604 11.048a5.67 5.67 0 0 0 .751-3.44c-.179-1.784-1.175-3.361-2.803-4.44l-1.105 1.666c1.119.742 1.8 1.799 1.918 2.974a3.693 3.693 0 0 1-1.072 2.986l-1.192 1.192 1.618.475C18.951 13.701 19 17.957 19 18h2c0-1.789-.956-5.285-4.396-6.952z"></path><path d="M9.5 12c2.206 0 4-1.794 4-4s-1.794-4-4-4-4 1.794-4 4 1.794 4 4 4zm0-6c1.103 0 2 .897 2 2s-.897 2-2 2-2-.897-2-2 .897-2 2-2zm1.5 7H8c-3.309 0-6 2.691-6 6v1h2v-1c0-2.206 1.794-4 4-4h3c2.206 0 4 1.794 4 4v1h2v-1c0-3.309-2.691-6-6-6z"></path>
</symbol>
<symbol id="icon-add" viewBox="0 0 24 24">
<path d="M13 7h-2v4H7v2h4v4h2v-4h4v-2h-4z"></path><path d="M12 2C6.486 2 2 6.486 2 12s4.486 10 10 10 10-4.486 10-10S17.514 2 12 2zm0 18c-4.411 0-8-3.589-8-8s3.589-8 8-8 8 3.589 8 8-3.589 8-8 8z"></path>
</symbol>
<symbol id="icon-plus" viewBox="0 0 24 24">
<path d="M13 7h-2v4H7v2h4v4h2v-4h4v-2h-4z"></path><path d="M12 2C6.486 2 2 6.486 2 12s4.486 10 10 10 10-4.486 10-10S17.514 2 12 2zm0 18c-4.411 0-8-3.589-8-8s3.589-8 8-8 8 3.589 8 8-3.589 8-8 8z"></path>
</symbol>
<symbol id="icon-minus" viewBox="0 0 24 24">
<path d="M7 11h10v2H7z"></path><path d="M12 2C6.486 2 2 6.486 2 12s4.486 10 10 10 10-4.486 10-10S17.514 2 12 2zm0 18c-4.411 0-8-3.589-8-8s3.589-8 8-8 8 3.589 8 8-3.589 8-8 8z"></path>
</symbol>
</svg>